<?xml version="1.0" encoding="iso-8859-1"?>
<!-- Generator: Adobe Illustrator 21.0.0, SVG Export Plug-In . SVG Version: 6.00 Build 0)  -->
<svg version="1.1" id="Capa_1" xmlns="http://www.w3.org/2000/svg" xmlns:xlink="http://www.w3.org/1999/xlink" x="0px" y="0px"
	 viewBox="0 0 512 512" style="enable-background:new 0 0 512 512;" xml:space="preserve">
<g>
	<path style="fill:#444444;" d="M437,271h-61c-8.291,0-15-6.709-15-15s6.709-15,15-15h61c8.291,0,15,6.709,15,15
		C452,264.291,445.291,271,437,271z"/>
	<path style="fill:#444444;" d="M383.28,398.28c-3.838,0-7.676-1.465-10.605-4.395l-42.422-42.422
		c-5.859-5.859-5.859-15.352,0-21.211s15.352-5.859,21.211,0l42.422,42.422c5.859,5.859,5.859,15.352,0,21.211
		C390.956,396.815,387.118,398.28,383.28,398.28z"/>
</g>
<g>
	<path style="fill:#5A5A5A;" d="M171.142,186.142c-3.838,0-7.676-1.465-10.605-4.395l-42.422-42.422
		c-5.859-5.859-5.859-15.352,0-21.211s15.352-5.859,21.211,0l42.422,42.422c5.859,5.859,5.859,15.352,0,21.211
		C178.817,184.677,174.979,186.142,171.142,186.142z"/>
	<path style="fill:#5A5A5A;" d="M128.72,398.28c-3.838,0-7.676-1.465-10.605-4.395c-5.859-5.859-5.859-15.352,0-21.211
		l42.422-42.422c5.859-5.859,15.352-5.859,21.211,0s5.859,15.352,0,21.211l-42.422,42.422
		C136.396,396.815,132.558,398.28,128.72,398.28z"/>
</g>
<path style="fill:#444444;" d="M340.858,186.142c-3.838,0-7.676-1.465-10.605-4.395c-5.859-5.859-5.859-15.352,0-21.211
	l42.422-42.422c5.859-5.859,15.352-5.859,21.211,0s5.859,15.352,0,21.211l-42.422,42.422
	C348.534,184.677,344.696,186.142,340.858,186.142z"/>
<g>
	<path style="fill:#5A5A5A;" d="M136,271H76c-8.291,0-15-6.709-15-15s6.709-15,15-15h60c8.291,0,15,6.709,15,15
		C151,264.291,144.291,271,136,271z"/>
	<path style="fill:#5A5A5A;" d="M271,76v60c0,8.399-6.599,15-15,15s-15-6.601-15-15V76c0-8.401,6.599-15,15-15S271,67.599,271,76z"
		/>
</g>
<path style="fill:#444444;" d="M256,151V61c8.401,0,15,6.599,15,15v60C271,144.399,264.401,151,256,151z"/>
<path style="fill:#5A5A5A;" d="M271,376v60c0,8.399-6.599,15-15,15s-15-6.601-15-15v-60c0-8.401,6.599-15,15-15S271,367.599,271,376
	z"/>
<path style="fill:#444444;" d="M271,376v60c0,8.399-6.599,15-15,15v-90C264.401,361,271,367.599,271,376z"/>
<path style="fill:#FF7816;" d="M256,121c-74.399,0-135,60.599-135,135c0,74.399,60.601,135,135,135s135-60.601,135-135
	C391,181.599,330.399,121,256,121z"/>
<path style="fill:#FF4B00;" d="M391,256c0,74.399-60.601,135-135,135V121C330.399,121,391,181.599,391,256z"/>
<g>
	<path style="fill:#76E2F8;" d="M256,421c-24.901,0-45,20.099-45,45c0,24.899,20.099,46,45,46s45-21.101,45-46
		C301,441.099,280.901,421,256,421z"/>
	<path style="fill:#76E2F8;" d="M256,0c-24.901,0-45,21.099-45,46c0,24.899,20.099,45,45,45s45-20.101,45-45
		C301,21.099,280.901,0,256,0z"/>
</g>
<path style="fill:#25D9F8;" d="M372.675,436.308c-17.549-17.549-17.549-46.084,0-63.633s46.084-17.549,63.633,0
	s17.549,46.084,0,63.633C418.776,453.839,390.224,453.857,372.675,436.308z"/>
<path style="fill:#ECECF1;" d="M329.5,330.7c-18.9,18.6-45,30.3-73.5,30.3s-54.6-11.7-73.5-30.3c7.2-33.9,37.2-59.7,73.5-59.7
	S322.301,296.8,329.5,330.7z"/>
<g>
	<path style="fill:#76E2F8;" d="M75.692,139.325c-17.549-17.549-17.549-46.084,0-63.633s46.084-17.549,63.633,0
		s17.549,46.084,0,63.633C121.794,156.857,93.241,156.874,75.692,139.325z"/>
	<path style="fill:#76E2F8;" d="M75.692,436.308c-17.549-17.549-17.549-46.084,0-63.633s46.084-17.549,63.633,0
		s17.549,46.084,0,63.633C121.794,453.839,93.241,453.857,75.692,436.308z"/>
</g>
<g>
	<path style="fill:#25D9F8;" d="M372.675,139.325c-17.549-17.549-17.549-46.084,0-63.633s46.084-17.549,63.633,0
		s17.549,46.084,0,63.633C418.776,156.857,390.224,156.874,372.675,139.325z"/>
	<path style="fill:#25D9F8;" d="M467,301c-24.814,0-45-20.186-45-45s20.186-45,45-45s45,20.186,45,45S491.814,301,467,301z"/>
</g>
<path style="fill:#76E2F8;" d="M45,301c-24.814,0-45-20.186-45-45s20.186-45,45-45s46,20.186,46,45S69.814,301,45,301z"/>
<path style="fill:#ECECF1;" d="M301,226c0,24.899-20.099,45-45,45s-45-20.101-45-45c0-24.901,20.099-45,45-45S301,201.099,301,226z"
	/>
<path style="fill:#E2E2E7;" d="M301,226c0,24.899-20.099,45-45,45v-90C280.901,181,301,201.099,301,226z"/>
<g>
	<path style="fill:#25D9F8;" d="M301,466c0,24.899-20.099,46-45,46v-91C280.901,421,301,441.099,301,466z"/>
	<path style="fill:#25D9F8;" d="M256,91V0c24.901,0,45,21.099,45,46C301,70.899,280.901,91,256,91z"/>
</g>
<path style="fill:#E2E2E7;" d="M329.5,330.7c-18.9,18.6-45,30.3-73.5,30.3v-90C292.301,271,322.301,296.8,329.5,330.7z"/>
<g>
</g>
<g>
</g>
<g>
</g>
<g>
</g>
<g>
</g>
<g>
</g>
<g>
</g>
<g>
</g>
<g>
</g>
<g>
</g>
<g>
</g>
<g>
</g>
<g>
</g>
<g>
</g>
<g>
</g>
</svg>
